<mxfile host="app.diagrams.net" modified="2023-04-04T11:21:58.950Z" agent="Mozilla/5.0 (Windows NT 10.0; Win64; x64) AppleWebKit/537.36 (KHTML, like Gecko) Chrome/108.0.0.0 Safari/537.36 Edg/108.0.1462.46" version="21.1.4" etag="muh2EC4efhohmdY-GSV7" type="github">
  <diagram name="第 1 页" id="FiZ4GFZ2n8cgIHBqVfBW">
    <mxGraphModel>
      <root>
        <mxCell id="0" />
        <mxCell id="1" parent="0" />
      </root>
    </mxGraphModel>
  </diagram>
</mxfile>
